<?xml version="1.0" encoding="UTF-8"?>
<svg id="a" data-name="Layer 1" xmlns="http://www.w3.org/2000/svg" width="24" height="24" viewBox="0 0 24 24">
  <defs>
    <style>
      .b {
        fill-rule: evenodd;
      }
    </style>
  </defs>
  <path class="b" d="M22.65741,9.71926h-.00104l-6.00598-6.987c-.96399-1.12097-2.48297-1.513-3.87-1-1.38599,.51404-2.28302,1.802-2.28302,3.28101v1.03613l-3.54065-3.5155c-1.01898-1.013-2.479-1.29803-3.802-.74603-1.32697,.552-2.15198,1.78802-2.15198,3.22504v13.974c0,1.43701,.82501,2.67297,2.15198,3.22498,.44598,.18604,.90802,.27698,1.36304,.27698,.89496,0,1.76398-.35199,2.43799-1.02295l3.54163-3.51599v1.03638c0,1.479,.89703,2.76697,2.284,3.28101,.40405,.14996,.82001,.22296,1.23004,.22296,.995,0,1.95599-.42896,2.638-1.22296l6.008-6.98602c1.13397-1.32196,1.13397-3.23999,0-4.56201Z"/>
</svg>