<svg xmlns="http://www.w3.org/2000/svg" width="24" height="24" viewBox="0 0 24 24">
  <path d="M8.5,1h-5A2.50263,2.50263,0,0,0,1,3.5v5A2.50263,2.50263,0,0,0,3.5,11h5A2.50263,2.50263,0,0,0,11,8.5v-5A2.50263,2.50263,0,0,0,8.5,1ZM9,8.5a.50065.50065,0,0,1-.5.5h-5A.50065.50065,0,0,1,3,8.5v-5A.50065.50065,0,0,1,3.5,3h5a.50065.50065,0,0,1,.5.5ZM20.5,1h-5A2.50263,2.50263,0,0,0,13,3.5v5A2.50263,2.50263,0,0,0,15.5,11h5A2.50263,2.50263,0,0,0,23,8.5v-5A2.50263,2.50263,0,0,0,20.5,1ZM21,8.5a.50065.50065,0,0,1-.5.5h-5a.50065.50065,0,0,1-.5-.5v-5a.50065.50065,0,0,1,.5-.5h5a.50065.50065,0,0,1,.5.5ZM8.5,13h-5A2.50263,2.50263,0,0,0,1,15.5v5A2.50263,2.50263,0,0,0,3.5,23h5A2.50263,2.50263,0,0,0,11,20.5v-5A2.50263,2.50263,0,0,0,8.5,13ZM9,20.5a.50065.50065,0,0,1-.5.5h-5a.50065.50065,0,0,1-.5-.5v-5a.50065.50065,0,0,1,.5-.5h5a.50065.50065,0,0,1,.5.5ZM20.5,13h-5A2.50263,2.50263,0,0,0,13,15.5v5A2.50263,2.50263,0,0,0,15.5,23h5A2.50263,2.50263,0,0,0,23,20.5v-5A2.50263,2.50263,0,0,0,20.5,13Zm.5,7.5a.50065.50065,0,0,1-.5.5h-5a.50065.50065,0,0,1-.5-.5v-5a.50065.50065,0,0,1,.5-.5h5a.50065.50065,0,0,1,.5.5Z"/>
</svg>
